# xmcd CD database file
#
# Track frame offsets:
#	150
#	15954
#	35835
#	50064
#	71596
#	83352
#	101525
#	114259
#	128411
#	146547
#	157580
#	169698
#	185135
#	200971
#	215369
#	231443
#
# Disc length: 3304 seconds
#
# Revision: 1
# Processed by: cddbd v1.5.1PL0 Copyright (c) Steve Scherf et al.
# Submitted via: CDex 1.51
#
DISCID=d40ce610
DTITLE=zruteze - Jahrtausendhits cd1
DYEAR=1900
DGENRE=
TTITLE0=Andy Borg - Adios Amor
TTITLE1=Bernhard Brink - du entschuldige, ich kenn' Dich
TTITLE2=Costa Cordalis - Anita
TTITLE3=Christian Anders - es fährt ein Zug nch nirgendwo
TTITLE4=Siw Malmquist - Liebeskummer lohnt sich nicht
TTITLE5=Drafi Deutscher - Marmor, Stein und Eisen bricht
TTITLE6=Peter Orloff - Königin der Nacht
TTITLE7=Bata Illic - Michaela
TTITLE8=Jürgen Marcus - ein Festival der Liebe
TTITLE9=Manuela - Schuld war nur der Bossa Nova
TTITLE10=Werner Leismann - Mendocino
TTITLE11=Demis Roussos - schönes Mädchen aus Arcadia
TTITLE12=Karat - über sieben Brücken musst du geh'n
TTITLE13=Gunter Gabriel - hey, Boss, ich brauch' mehr Geld
TTITLE14=Peter Rubin - wir zwei fahren irgend wohin
TTITLE15=Roy Black - ganz in Weiss
EXTD=
EXTT0=
EXTT1=
EXTT2=
EXTT3=
EXTT4=
EXTT5=
EXTT6=
EXTT7=
EXTT8=
EXTT9=
EXTT10=
EXTT11=
EXTT12=
EXTT13=
EXTT14=
EXTT15=
PLAYORDER=
